<?xml version="1.0" encoding="UTF-8"?>
<!DOCTYPE svg PUBLIC "-//W3C//DTD SVG 1.1//EN" "http://www.w3.org/Graphics/SVG/1.1/DTD/svg11.dtd">
<svg xmlns="http://www.w3.org/2000/svg" version="1.1" width="512px" height="512px" style="shape-rendering:geometricPrecision; text-rendering:geometricPrecision; image-rendering:optimizeQuality; fill-rule:evenodd; clip-rule:evenodd" xmlns:xlink="http://www.w3.org/1999/xlink">
<g><path fill="#000000" fill-opacity="0.992" stroke="#000000" stroke-width="0.5" stroke-opacity="0.992" d="M 106.97,0 c 53,0 106.01,0 159.01,0 c -0.05,0.45 0.14,0.76 0.57,0.92 c 7.02,-0.59 13.09,1.2 19.93,2.23 c 53.39,11.84 94.6,49.29 111.42,101.32 c 11.2,37.8 5.6,78.15 6.87,117.03 c -0.45,19 -10.31,33.86 -28.32,40.38 c -2.37,0.59 -4.7,1.26 -7,1.99 c -0.42,0.43 -0.7,0.94 -0.86,1.51 c -7.9,31.95 -25.9,56.49 -54.01,73.64 c -0.4,0.41 -0.62,0.9 -0.64,1.48 c 0.21,1.45 -0.69,6.68 0.66,7.42 c 12.49,2.31 27.12,4.32 39.9,6.26 c 37.11,5.55 67.99,29.98 81.68,64.92 c 9.63,30.13 19.15,60.29 28.56,90.48 c 0.29,0.79 0.39,1.59 0.29,2.42 c -139.35,0 -278.71,0 -418.06,0 c -0.01,-0.7 0.06,-1.39 0.21,-2.07 c 9.47,-30.52 19.09,-61 28.86,-91.42 c 13.86,-34.63 44.55,-58.83 81.46,-64.33 c 12.75,-1.95 27.45,-3.96 39.9,-6.26 c 1.2,-0.82 0.94,-7.73 0.03,-8.88 c -20.92,-12.57 -36.51,-29.94 -46.76,-52.09 c -3.2,-7.81 -5.25,-15.23 -7.94,-23.11 c -2.57,-0.71 -5.17,-1.41 -7.78,-2.11 c -18.05,-7.44 -26.42,-19.99 -27.69,-39.25 c 1.48,-52.24 -8.11,-103.38 21.35,-150.17 c 0.31,-0.56 0.45,-1.16 0.4,-1.81 c -2.74,-3.95 -5.39,-7.98 -7.94,-12.09 c -11.11,-18.71 -13.93,-36.95 -14.1,-58.41 Z M 124.73,20.1 c 0.46,0.45 0.84,0.96 1.14,1.53 c 3.93,35.34 37.33,64.64 72.03,68.75 c 3.19,0.25 6.39,0.46 9.6,0.63 c 37.35,-0.01 74.7,0 112.06,0.02 c 0.73,0.16 1.16,-0.09 1.3,-0.74 c 0.71,-0.06 1.13,0.26 1.24,0.97 c -0.03,5.27 -0.13,10.54 -0.31,15.8 c -40.83,-0.06 -81.65,-0.07 -122.47,-0.02 c -10.18,-0.28 -31.11,-4.43 -38.9,-10.91 c -4.73,-2.11 -14.36,-7.7 -17.38,-11.73 c -0.73,-0.54 -1.39,-0.49 -1.99,0.17 c -7.48,14.94 -13.24,28.15 -15.08,44.85 c -2.94,18.3 -1.63,39.32 -2.03,58.14 c -0.06,0.54 0.11,0.98 0.5,1.31 c 1.49,-0.84 2.99,-1.65 4.51,-2.44 c 0.82,-1.18 1.94,-1.7 3.37,-1.57 c 2.47,-1.32 5.01,-2.43 7.62,-3.33 c 0.38,-15.12 4.35,-24.2 12.55,-36.54 c 12.86,-13.48 24.64,-20.96 43.85,-20.99 c 41.37,0.02 82.74,0 124.11,-0.07 c 0.39,-0.12 0.53,-0.37 0.42,-0.75 c 0.73,-0.01 1.12,0.36 1.19,1.1 c 0,5.24 -0.08,10.48 -0.22,15.71 c -40.45,0.01 -80.89,0.01 -121.34,0 c -2.24,0.01 -4.46,0.21 -6.67,0.58 c -0.92,0.26 -1.74,0.72 -2.45,1.38 c -2.66,-0.33 -4.13,1.41 -6.79,1.2 c -12.31,5.15 -23.57,15.83 -25.72,29.18 c -2.95,3.33 -1.89,59.34 -1.91,68.21 c 2.53,4.52 -0.48,9.23 2.11,13.99 c -0.71,6.02 7.53,28.83 11.42,33.45 c 5.98,11.59 19.89,27.16 31.55,33.49 c 10.88,8.41 29.02,14.9 42.38,15.6 c 0.72,0.67 1.56,1.07 2.53,1.2 c 1.82,0.32 3.67,0.56 5.56,0.72 c 1,-0.18 2,-0.31 3.01,-0.39 c 3.19,0.57 6.37,0.51 9.54,-0.17 c 0.95,-0.27 1.81,-0.71 2.58,-1.34 c 5.41,-0.35 16.4,-2.23 20.97,-5.04 c 16.01,-4.33 31.63,-16.68 42.91,-29.04 c 0.46,-1.51 7.11,-9.69 7.99,-10.99 c 5.75,-9.19 13.39,-27.14 13.48,-37.57 c 2.46,-4.39 -0.44,-9.19 2.03,-13.91 c -0.03,-33.28 -0.03,-66.56 0.01,-99.84 c -1.45,-2.03 -14.6,0.57 -15.94,-1.29 c -0.12,-5.04 -0.15,-10.08 -0.08,-15.13 c 10.65,-0.34 21.3,-0.38 31.95,-0.09 c 0.04,18.43 0.05,36.87 0.02,55.31 c -0.03,0.39 -0.1,4.29 1.06,2.8 c 1.64,-0.34 10.18,2.91 10.92,4.2 c 1.53,0.78 3.05,1.56 4.57,2.34 c 0.35,-0.35 0.51,-0.78 0.48,-1.29 c 0.17,-18.49 0,-36.55 -1.21,-54.86 c -1.55,-5.14 -1.32,-10.99 -3.54,-16.32 c -6.24,-30.55 -31.96,-65.26 -59.25,-79.83 c -18.96,-12.71 -42.3,-18.49 -64.97,-19.55 c -0.76,-1.36 -4.21,-0.79 -5.54,-1 c -42.67,0 -85.35,0.01 -128.02,0.03 c -2.35,-0.22 -1.4,2.94 -0.75,4.08 Z M 188.9,194.04 c 1.22,-1.87 1.07,-2.15 1.19,-4.46 c 9.23,-19.23 36.26,-1.86 19.92,14.95 c -8.36,4.59 -12.3,3.24 -18.51,-3.54 c -1.69,-1.94 -1.08,-5.22 -2.6,-6.95 Z M 296.9,191.97 c -0.2,-3.38 6.12,-10.53 9.51,-10.01 c 5.6,-3.77 16.02,3.56 15.62,10.41 c 1.12,1.05 1.15,2.12 0.08,3.21 c 0.02,5.33 -2.91,6.39 -6.14,9.96 c -1.59,0.19 -3.07,0.7 -4.44,1.53 c -10.01,-0.21 -14.63,-5.04 -14.63,-15.1 Z M 138.05,245.27 c 0.5,0.64 2.17,0.75 2.65,0.02 c -0.06,-1.28 0.04,-2.55 0.29,-3.81 c -0.05,-9.33 -0.05,-18.67 -0.01,-28 c 0.08,-0.99 -0.22,-1.83 -0.91,-2.52 c -0.07,-2.83 -0.08,-5.66 -0.03,-8.5 c 0.31,-4.06 -5.78,1.94 -7.03,1.96 c -4.87,5.01 -7.88,8.88 -8.13,15.96 c -2.08,2.61 -0.49,3.76 0.16,6.06 c -0.16,5.92 3.76,11.1 7.92,15.04 c 1.55,0.75 3.01,1.62 4.39,2.61 c 0.51,0.23 0.74,0.63 0.7,1.18 Z M 371.99,210.95 c -0.6,0.35 -0.87,0.87 -0.79,1.58 c 0.15,8.32 0.21,16.65 0.18,24.98 c -0.3,1.99 -0.45,3.99 -0.45,6.01 c -0.31,2.56 2.56,2.8 3.01,1.7 c -0.02,-0.5 0.2,-0.85 0.66,-1.06 c 1.36,-1.05 2.83,-1.93 4.41,-2.64 c 4.67,-4.36 7.9,-9.46 8.08,-15.89 c 1.31,-1.76 1.31,-3.51 0,-5.26 c -0.08,-9.09 -6.15,-15.06 -13.73,-19.35 c -0.57,-0.22 -0.99,-0.06 -1.26,0.49 c -0.08,3.14 -0.12,6.29 -0.11,9.44 Z M 190.23,239.96 c 5.06,0 10.12,0.04 15.17,0.13 c 1.56,0.62 0.54,3.56 1.2,4.91 c 0.41,0.56 0.85,1.09 1.33,1.61 c 0.36,2.17 -0.66,3.21 1.01,4.98 c 5.13,20.52 23.07,36.04 44.59,36.41 c 0.96,0.32 1.92,0.64 2.87,0.96 c 0.55,-0.59 1.21,-0.94 1.99,-1.05 c 5.23,0.23 6.7,0.47 11.24,-1.83 c 12.62,-3.11 22.88,-11.53 28.84,-23.09 c 3.09,-2.28 3.32,-9.39 5.47,-12.66 c 0.34,-2.89 -0.69,-3.1 1.37,-5.37 c 0.34,-1.42 0.61,-2.87 0.82,-4.34 c 0.17,-0.17 0.33,-0.33 0.5,-0.5 c 5.03,-0.16 10.05,-0.19 15.08,-0.09 c 0.88,3.85 0.06,13.53 -1.58,16.56 c -0.97,9.91 -15.13,31.43 -24.2,35.9 c -8.49,9.13 -35.14,15.7 -47.28,13.37 c -2.15,-1.59 -8.27,-0.58 -11.32,-2.83 c -11.18,-1.8 -28.04,-13.44 -33.78,-23 c -3.94,-3.28 -11.16,-18.11 -11.67,-23.41 c -1.68,-3.26 -2.49,-12.56 -1.65,-16.66 Z M 215,354.03 c 0.45,-0.06 0.75,0.12 0.91,0.55 c -0.2,1.49 0.34,2.62 1.63,3.38 c 4.85,11.15 16.18,18.59 27.82,20.07 c 2.46,1.72 22.31,1.6 25.29,-0.95 c 11.07,-1.09 26.73,-16.07 26.39,-27.64 c 0.08,-1.01 -0.37,-1.46 -1.35,-1.36 c -1.44,0.6 -2.87,1.21 -4.3,1.82 c -7.3,2.27 -14.26,3.87 -21.89,5.09 c -2.76,0.44 -10.16,-0.99 -12.08,0.93 c -2.01,0.74 -3.17,-0.53 -4.9,-0.96 c -4.81,-0.42 -8.59,1.15 -13,-1.04 c -3.12,0.77 -14.95,-2.65 -17.2,-3.8 c -2.28,-0.65 -4.51,-1.37 -6.69,-2.16 c -1.26,0.71 -0.29,4.73 -0.63,6.07 Z M 226.06,495.36 c 0.7,0.53 1.51,0.75 2.42,0.66 c 4.68,0 9.36,0 14.04,-0.01 c 1.3,0.02 3.03,-0.43 1.88,-2.03 c -0.54,0.09 -0.97,-0.08 -1.29,-0.51 c -0.42,-1.6 -0.84,-3.21 -1.25,-4.81 c -13.59,-40.45 -27.15,-80.89 -40.67,-121.34 c 0.06,-3.17 -1.34,-2.23 -3.73,-2.32 c -1.54,-0.09 -2.43,1.57 -3.35,2.58 c -5.79,14.04 -11.76,28 -17.94,41.88 c 0.15,0.43 0.41,0.76 0.8,1 c 2.21,1.27 7.36,4.64 8.99,6.05 c 4.74,2.93 9.4,5.97 13.98,9.12 c -1.95,7.32 -3.87,14.66 -5.77,22.02 c -0.12,0.89 -0.22,1.78 -0.32,2.67 c -0.88,3.1 -1.79,6.18 -2.72,9.26 c 11.4,11.56 22.89,23.03 34.49,34.41 c 0.29,0.41 0.44,0.87 0.44,1.37 Z M 267.98,495.29 c 0.33,0.54 0.82,0.78 1.49,0.71 c 5.3,0.07 10.58,0 15.87,-0.2 c 0.3,-0.1 0.53,-0.29 0.67,-0.57 c -0.07,-0.47 0.05,-0.89 0.36,-1.25 c 11.41,-11.3 22.82,-22.6 34.23,-33.9 c 0.07,-0.18 0.14,-0.37 0.21,-0.56 c -0.7,-1.17 -1.02,-2.44 -0.96,-3.82 c -2.55,-10.09 -5.15,-20.13 -7.8,-30.11 c 3.16,-1.77 6.15,-3.81 8.97,-6.12 c 0.68,-0.31 1.35,-0.62 2.04,-0.91 c 4.32,-3 8.6,-6.01 12.84,-9.04 c -6.2,-14.14 -12.34,-28.33 -18.39,-42.57 c -1.76,-2.16 -2.3,-2.07 -5.09,-2.04 c -0.59,-0.08 -1.06,0.12 -1.39,0.61 c -1.33,4.63 -2.71,9.25 -4.16,13.85 c -13.1,38.59 -26.06,77.23 -38.89,115.92 Z M 69.7,493.1 c -0.32,0.02 -0.5,0.19 -0.56,0.53 c -0.32,1.28 0.13,2.07 1.35,2.36 c 20.01,0.01 40.02,0.02 60.02,0.02 c 1.02,0.16 1.87,-0.11 2.55,-0.8 c 0.01,-1.86 0.02,-3.72 0.03,-5.58 c 1.95,-11.07 2.98,-24.61 4.82,-35.19 c -0.33,-5.8 1.94,-12.22 2.15,-17.93 c 0.86,-1.64 3.26,0.41 4.55,0.37 c 3.99,0.21 7.95,0.61 11.88,1.19 c 1.3,1.48 0.16,6.73 -0.44,8.59 c -1.56,16.27 -3.62,32.45 -6.04,48.57 c 0.09,0.31 0.3,0.52 0.62,0.61 c 16.95,0.19 33.91,0.2 50.86,0.02 c 1.93,-0.1 0.83,-1.36 -0.14,-1.79 c -0.52,0.02 -0.97,-0.15 -1.36,-0.51 c -9.37,-9.35 -18.7,-18.73 -27.98,-28.14 c 2.05,-8.56 4.11,-17.14 6.17,-25.75 c 0.55,-1.77 1.13,-3.52 1.75,-5.26 c 0.15,-0.55 0.04,-1.02 -0.35,-1.44 c -6.75,-4.63 -13.59,-9.1 -20.53,-13.42 c -1.45,-1.87 -3.72,-1.76 -4.94,-4.07 c 2.4,-4.23 4.35,-9.21 6.06,-13.79 c 4.56,-9.32 8.77,-18.79 12.64,-28.39 c 0.28,-1.32 0.68,-2.59 1.19,-3.8 c -0.85,-1.32 -3.59,-0.34 -4.66,0.31 c -36.27,4.17 -59.88,18.87 -76.19,51.88 c -8.19,22.36 -14.18,45.52 -21.95,67.98 c -0.3,1.12 0.35,3.51 -1.5,3.43 Z M 310.77,493.96 c -0.96,0.43 -2.29,1.77 -0.24,1.9 c 16.95,0.18 33.9,0.18 50.85,-0.01 c 0.31,-0.08 0.53,-0.27 0.65,-0.55 c -1.21,-3.62 -0.75,-8.38 -1.96,-11.88 c -0.82,-13.92 -4.44,-30.99 -4.98,-44.92 c 0.17,-0.16 0.33,-0.31 0.5,-0.47 c 3.9,-0.5 7.83,-0.88 11.78,-1.14 c 1.32,0.01 3.57,-2.05 4.5,-0.38 c 0,1.75 0.34,3.44 1.01,5.05 c -0.1,2.73 0.23,5.4 0.99,8.01 c 1.33,15.17 4.17,30.6 5.2,45.66 c 0.14,0.99 1.77,0.69 2.41,0.78 c 20.01,0 40.01,-0.01 60.02,-0.02 c 1.84,-0.11 1.76,-1.89 0.8,-2.94 c -1.91,0.15 -1.26,-2.18 -1.52,-3.32 c -14.06,-37.03 -17.32,-84.3 -54.79,-106.22 c -11.65,-6.84 -23.76,-11.47 -37.29,-12.68 c -0.47,-0.21 -0.93,-0.42 -1.4,-0.64 c -2.67,-0.02 -5.28,-0.43 -7.82,-1.21 c -1.05,-0.1 -1.53,0.35 -1.45,1.36 c 1.61,2.17 7.64,16.27 8.11,18.96 c 4.28,8.59 7.35,17.7 11.66,26.22 c -0.45,0.75 -1.03,1.39 -1.77,1.92 c -7.82,5.26 -15.72,10.43 -23.68,15.53 c -0.34,0.42 -0.43,0.88 -0.27,1.39 c 0.62,1.75 1.19,3.51 1.72,5.29 c 2.12,8.63 4.21,17.22 6.25,25.8 c -9.36,9.33 -18.69,18.72 -27.98,28.15 c -0.39,0.29 -0.82,0.4 -1.3,0.36 Z M 227.96,393.01 c 0.45,-0.12 0.76,0.05 0.93,0.49 c -0.1,1.2 0.24,2.25 1.03,3.14 c 0.03,0.87 3.38,11.41 4.01,12.02 c -0.02,0.81 0.14,1.56 0.49,2.25 c 2.51,-4.84 5.03,-9.69 7.55,-14.54 c 0.76,-2.14 -2.43,-1.19 -3.44,-1.47 c -2.7,-1.39 -6.91,-1.39 -10.05,-3.77 c -0.42,0.55 -0.6,1.17 -0.52,1.88 Z M 269.95,395.01 c -0.06,0.45 -0.01,0.89 0.15,1.32 c 2.48,4.83 4.94,9.66 7.36,14.51 c 0.27,-1.23 0.75,-2.39 1.44,-3.48 c 0.57,-2.18 3.98,-12.85 5.05,-14.01 c 0.29,-0.83 0.17,-1.58 -0.38,-2.23 c -1.03,0.6 -2.07,1.18 -3.11,1.76 c -3.17,0.28 -7.17,2.6 -10.51,2.13 Z M 242.93,437 c 4.22,10.78 7.68,23.43 11.91,34.54 c 0.18,0.9 -0.13,3.05 1.53,2.51 c 0.53,-0.68 0.76,-1.48 0.69,-2.38 c 3.97,-10.09 6.87,-21.19 10.86,-31.37 c 0.06,-2.43 1.98,-4.01 0.93,-6.66 c -4.07,-7.99 -8.07,-16.01 -12.01,-24.07 c -0.25,-0.56 -0.68,-0.76 -1.27,-0.58 c -4.16,8.2 -8.32,16.4 -12.48,24.61 c -0.16,1.12 -0.21,2.26 -0.16,3.4 Z"/></g>
<g><path fill="#ffffff" stroke="#ffffff" stroke-width="0.5" d="M 227.96,393.01 c -0.08,-0.71 0.1,-1.33 0.52,-1.88 c 3.14,2.38 7.35,2.38 10.05,3.77 c 1.01,0.28 4.2,-0.67 3.44,1.47 c -2.52,4.85 -5.04,9.7 -7.55,14.54 c -0.35,-0.69 -0.51,-1.44 -0.49,-2.25 c -0.63,-0.61 -3.98,-11.15 -4.01,-12.02 c -0.79,-0.89 -1.13,-1.94 -1.03,-3.14 c -0.17,-0.44 -0.48,-0.61 -0.93,-0.49 Z M 269.95,395.01 c 3.34,0.47 7.34,-1.85 10.51,-2.13 c 1.04,-0.58 2.08,-1.16 3.11,-1.76 c 0.55,0.65 0.67,1.4 0.38,2.23 c -1.07,1.16 -4.48,11.83 -5.05,14.01 c -0.69,1.09 -1.17,2.25 -1.44,3.48 c -2.42,-4.85 -4.88,-9.68 -7.36,-14.51 c -0.16,-0.43 -0.21,-0.87 -0.15,-1.32 Z M 242.93,437 c -0.05,-1.14 0,-2.28 0.16,-3.4 c 4.16,-8.21 8.32,-16.41 12.48,-24.61 c 0.59,-0.18 1.02,0.02 1.27,0.58 c 3.94,8.06 7.94,16.08 12.01,24.07 c 1.05,2.65 -0.87,4.23 -0.93,6.66 c -3.99,10.18 -6.89,21.28 -10.86,31.37 c 0.07,0.9 -0.16,1.7 -0.69,2.38 c -1.66,0.54 -1.35,-1.61 -1.53,-2.51 c -4.23,-11.11 -7.69,-23.76 -11.91,-34.54 Z"/></g>
<g><path fill="#ffce85" stroke="#ffce85" stroke-width="0.5" d="M 193.83,140.57 c 0.86,0.31 1.74,0.47 2.65,0.47 c 41.82,0.01 83.64,-0.05 125.46,-0.18 c 0.35,0.02 0.7,0.04 1.05,0.06 c 4.97,0.09 9.95,0.11 14.92,0.05 c 5.72,0.13 11.42,0.04 17.12,-0.27 c -0.04,33.28 -0.04,66.56 -0.01,99.84 c -2.47,4.72 0.43,9.52 -2.03,13.91 c -0.09,10.43 -7.73,28.38 -13.48,37.57 c -0.88,1.3 -7.53,9.48 -7.99,10.99 c -11.28,12.36 -26.9,24.71 -42.91,29.04 c -4.57,2.81 -15.56,4.69 -20.97,5.04 c -0.77,0.63 -1.63,1.07 -2.58,1.34 c -0.82,-0.32 -1.67,-0.47 -2.55,-0.46 c -5.19,-0.01 -10.38,0.09 -15.56,0.3 c -0.97,-0.13 -1.81,-0.53 -2.53,-1.2 c -13.36,-0.7 -31.5,-7.19 -42.38,-15.6 c -11.66,-6.33 -25.57,-21.9 -31.55,-33.49 c -3.89,-4.62 -12.13,-27.43 -11.42,-33.45 c -2.59,-4.76 0.42,-9.47 -2.11,-13.99 c 0.02,-8.87 -1.04,-64.88 1.91,-68.21 c 2.15,-13.35 13.41,-24.03 25.72,-29.18 c 2.66,0.21 4.13,-1.53 6.79,-1.2 c 0.71,-0.66 1.53,-1.12 2.45,-1.38 Z M 188.9,194.04 c 1.52,1.73 0.91,5.01 2.6,6.95 c 6.21,6.78 10.15,8.13 18.51,3.54 c 16.34,-16.81 -10.69,-34.18 -19.92,-14.95 c -0.12,2.31 0.03,2.59 -1.19,4.46 Z M 296.9,191.97 c 0,10.06 4.62,14.89 14.63,15.1 c 1.37,-0.83 2.85,-1.34 4.44,-1.53 c 3.23,-3.57 6.16,-4.63 6.14,-9.96 c 1.07,-1.09 1.04,-2.16 -0.08,-3.21 c 0.4,-6.85 -10.02,-14.18 -15.62,-10.41 c -3.39,-0.52 -9.71,6.63 -9.51,10.01 Z M 140.07,210.96 c -0.06,10.83 -0.09,21.66 -0.07,32.49 c -0.08,1.2 -0.73,1.81 -1.95,1.82 c 0.04,-0.55 -0.19,-0.95 -0.7,-1.18 c -1.38,-0.99 -2.84,-1.86 -4.39,-2.61 c -4.16,-3.94 -8.08,-9.12 -7.92,-15.04 c -0.65,-2.3 -2.24,-3.45 -0.16,-6.06 c 0.25,-7.08 3.26,-10.95 8.13,-15.96 c 1.25,-0.02 7.34,-6.02 7.03,-1.96 c -0.05,2.84 -0.04,5.67 0.03,8.5 Z M 373.94,245.22 c -1.18,-0.01 -1.84,-0.59 -1.99,-1.74 c 0.05,-10.84 0.06,-21.69 0.04,-32.53 c -0.01,-3.15 0.03,-6.3 0.11,-9.44 c 0.27,-0.55 0.69,-0.71 1.26,-0.49 c 7.58,4.29 13.65,10.26 13.73,19.35 c 1.31,1.75 1.31,3.5 0,5.26 c -0.18,6.43 -3.41,11.53 -8.08,15.89 c -1.58,0.71 -3.05,1.59 -4.41,2.64 c -0.46,0.21 -0.68,0.56 -0.66,1.06 Z M 190.23,239.96 c -0.84,4.1 -0.03,13.4 1.65,16.66 c 0.51,5.3 7.73,20.13 11.67,23.41 c 5.74,9.56 22.6,21.2 33.78,23 c 3.05,2.25 9.17,1.24 11.32,2.83 c 12.14,2.33 38.79,-4.24 47.28,-13.37 c 9.07,-4.47 23.23,-25.99 24.2,-35.9 c 1.64,-3.03 2.46,-12.71 1.58,-16.56 c 1.51,-0.49 1.45,-0.85 -0.16,-1.08 c -5.34,0.03 -10.67,0.07 -16.01,0.11 c -1.13,0.71 -0.46,4.69 -0.23,5.9 c -2.06,2.27 -1.03,2.48 -1.37,5.37 c -2.15,3.27 -2.38,10.38 -5.47,12.66 c -5.96,11.56 -16.22,19.98 -28.84,23.09 c -4.54,2.3 -6.01,2.06 -11.24,1.83 c -0.78,0.11 -1.44,0.46 -1.99,1.05 c -0.95,-0.32 -1.91,-0.64 -2.87,-0.96 c -21.52,-0.37 -39.46,-15.89 -44.59,-36.41 c -1.67,-1.77 -0.65,-2.81 -1.01,-4.98 c -0.48,-0.52 -0.92,-1.05 -1.33,-1.61 c 0.31,-1.23 0.99,-5.16 -0.17,-5.93 c -5.32,-0.05 -10.64,-0.09 -15.97,-0.13 c -0.56,-0.05 -1.01,0.15 -1.34,0.57 c 0.26,0.39 0.64,0.54 1.11,0.45 Z M 215,354.03 c 0.34,-1.34 -0.63,-5.36 0.63,-6.07 c 2.18,0.79 4.41,1.51 6.69,2.16 c 2.25,1.15 14.08,4.57 17.2,3.8 c 4.41,2.19 8.19,0.62 13,1.04 c 1.73,0.43 2.89,1.7 4.9,0.96 c 1.92,-1.92 9.32,-0.49 12.08,-0.93 c 7.63,-1.22 14.59,-2.82 21.89,-5.09 c 1.43,-0.61 2.86,-1.22 4.3,-1.82 c 0.98,-0.1 1.43,0.35 1.35,1.36 c 0.34,11.57 -15.32,26.55 -26.39,27.64 c -2.98,2.55 -22.83,2.67 -25.29,0.95 c -11.64,-1.48 -22.97,-8.92 -27.82,-20.07 c -1.29,-0.76 -1.83,-1.89 -1.63,-3.38 c -0.16,-0.43 -0.46,-0.61 -0.91,-0.55 Z"/></g>
<g><path fill="#3ba130" stroke="#3ba130" stroke-width="0.5" d="M 244.4,493.98 c -0.15,0.49 -0.47,0.81 -0.95,0.98 c -4.99,0.04 -9.97,0.05 -14.96,0.02 c -0.83,0.01 -1.64,0.13 -2.43,0.38 c 0,-0.5 -0.15,-0.96 -0.44,-1.37 c -11.6,-11.38 -23.09,-22.85 -34.49,-34.41 c 0.93,-3.08 1.84,-6.16 2.72,-9.26 c 0.1,-0.89 0.2,-1.78 0.32,-2.67 c 1.9,-7.36 3.82,-14.7 5.77,-22.02 c -4.58,-3.15 -9.24,-6.19 -13.98,-9.12 c -1.63,-1.41 -6.78,-4.78 -8.99,-6.05 c -0.39,-0.24 -0.65,-0.57 -0.8,-1 c 6.18,-13.88 12.15,-27.84 17.94,-41.88 c 0.92,-1.01 1.81,-2.67 3.35,-2.58 c 2.39,0.09 3.79,-0.85 3.73,2.32 c 13.52,40.45 27.08,80.89 40.67,121.34 c 0.41,1.6 0.83,3.21 1.25,4.81 c 0.32,0.43 0.75,0.6 1.29,0.51 Z M 286.01,495.23 c -6.01,-0.33 -12.02,-0.31 -18.03,0.06 c 12.83,-38.69 25.79,-77.33 38.89,-115.92 c 1.45,-4.6 2.83,-9.22 4.16,-13.85 c 0.33,-0.49 0.8,-0.69 1.39,-0.61 c 2.79,-0.03 3.33,-0.12 5.09,2.04 c 6.05,14.24 12.19,28.43 18.39,42.57 c -4.24,3.03 -8.52,6.04 -12.84,9.04 c -0.69,0.29 -1.36,0.6 -2.04,0.91 c -2.82,2.31 -5.81,4.35 -8.97,6.12 c 2.65,9.98 5.25,20.02 7.8,30.11 c -0.06,1.38 0.26,2.65 0.96,3.82 c -0.07,0.19 -0.14,0.38 -0.21,0.56 c -11.41,11.3 -22.82,22.6 -34.23,33.9 c -0.31,0.36 -0.43,0.78 -0.36,1.25 Z M 201.35,494.07 c -0.38,0.71 -0.99,1.02 -1.81,0.95 c -16.52,-0.09 -33.03,-0.02 -49.53,0.21 c 2.42,-16.12 4.48,-32.3 6.04,-48.57 c 0.6,-1.86 1.74,-7.11 0.44,-8.59 c -3.93,-0.58 -7.89,-0.98 -11.88,-1.19 c -1.29,0.04 -3.69,-2.01 -4.55,-0.37 c -0.21,5.71 -2.48,12.13 -2.15,17.93 c -1.84,10.58 -2.87,24.12 -4.82,35.19 c -0.01,1.86 -0.02,3.72 -0.03,5.58 c -20.52,-0.21 -41.04,-0.28 -61.57,-0.2 c -1.12,-0.13 -1.71,-0.76 -1.79,-1.91 c 1.85,0.08 1.2,-2.31 1.5,-3.43 c 7.77,-22.46 13.76,-45.62 21.95,-67.98 c 16.31,-33.01 39.92,-47.71 76.19,-51.88 c 1.07,-0.65 3.81,-1.63 4.66,-0.31 c -0.51,1.21 -0.91,2.48 -1.19,3.8 c -3.87,9.6 -8.08,19.07 -12.64,28.39 c -1.71,4.58 -3.66,9.56 -6.06,13.79 c 1.22,2.31 3.49,2.2 4.94,4.07 c 6.94,4.32 13.78,8.79 20.53,13.42 c 0.39,0.42 0.5,0.89 0.35,1.44 c -0.62,1.74 -1.2,3.49 -1.75,5.26 c -2.06,8.61 -4.12,17.19 -6.17,25.75 c 9.28,9.41 18.61,18.79 27.98,28.14 c 0.39,0.36 0.84,0.53 1.36,0.51 Z M 442.3,493.05 c -0.03,1.19 -0.63,1.85 -1.79,1.96 c -20.48,-0.09 -40.97,-0.01 -61.44,0.22 c -1.03,-15.06 -3.87,-30.49 -5.2,-45.66 c -0.76,-2.61 -1.09,-5.28 -0.99,-8.01 c -0.67,-1.61 -1.01,-3.3 -1.01,-5.05 c -0.93,-1.67 -3.18,0.39 -4.5,0.38 c -3.95,0.26 -7.88,0.64 -11.78,1.14 c -0.17,0.16 -0.33,0.31 -0.5,0.47 c 0.54,13.93 4.16,31 4.98,44.92 c 1.21,3.5 0.75,8.26 1.96,11.88 c -16.51,-0.31 -33.03,-0.4 -49.56,-0.26 c -0.85,0.06 -1.42,-0.3 -1.7,-1.08 c 0.48,0.04 0.91,-0.07 1.3,-0.36 c 9.29,-9.43 18.62,-18.82 27.98,-28.15 c -2.04,-8.58 -4.13,-17.17 -6.25,-25.8 c -0.53,-1.78 -1.1,-3.54 -1.72,-5.29 c -0.16,-0.51 -0.07,-0.97 0.27,-1.39 c 7.96,-5.1 15.86,-10.27 23.68,-15.53 c 0.74,-0.53 1.32,-1.17 1.77,-1.92 c -4.31,-8.52 -7.38,-17.63 -11.66,-26.22 c -0.47,-2.69 -6.5,-16.79 -8.11,-18.96 c -0.08,-1.01 0.4,-1.46 1.45,-1.36 c 2.54,0.78 5.15,1.19 7.82,1.21 c 0.47,0.22 0.93,0.43 1.4,0.64 c 13.53,1.21 25.64,5.84 37.29,12.68 c 37.47,21.92 40.73,69.19 54.79,106.22 c 0.26,1.14 -0.39,3.47 1.52,3.32 Z"/></g>
<g><path fill="#d17d00" stroke="#d17d00" stroke-width="0.5" d="M 259.04,16.99 c 22.67,1.06 46.01,6.84 64.97,19.55 c 27.29,14.57 53.01,49.28 59.25,79.83 c 2.22,5.33 1.99,11.18 3.54,16.32 c 1.21,18.31 1.38,36.37 1.21,54.86 c 0.03,0.51 -0.13,0.94 -0.48,1.29 c -1.52,-0.78 -3.04,-1.56 -4.57,-2.34 c -0.74,-1.29 -9.28,-4.54 -10.92,-4.2 c -0.04,-19.43 -0.05,-38.87 -0.04,-58.3 c -0.24,-0.68 -0.73,-1.02 -1.48,-1 c -10.01,0.01 -20.02,0 -30.04,-0.02 c -0.8,0.03 -2.37,-0.15 -2.48,1.02 c 0.04,5.66 0.01,11.32 -0.09,16.97 c -4.97,0.06 -9.95,0.04 -14.92,-0.05 c 0,-5.16 0.01,-10.32 0.02,-15.47 c 0.11,-0.81 -0.2,-1.2 -0.95,-1.17 c -0.07,-0.74 -0.46,-1.11 -1.19,-1.1 c -41.14,-0.16 -82.28,-0.24 -123.42,-0.23 c -0.85,-0.1 -1.22,0.25 -1.11,1.05 c -19.21,0.03 -30.99,7.51 -43.85,20.99 c -8.2,12.34 -12.17,21.42 -12.55,36.54 c -2.61,0.9 -5.15,2.01 -7.62,3.33 c -1.43,-0.13 -2.55,0.39 -3.37,1.57 c -1.52,0.79 -3.02,1.6 -4.51,2.44 c -0.39,-0.33 -0.56,-0.77 -0.5,-1.31 c 0.4,-18.82 -0.91,-39.84 2.03,-58.14 c 1.84,-16.7 7.6,-29.91 15.08,-44.85 c 0.6,-0.66 1.26,-0.71 1.99,-0.17 c 3.02,4.03 12.65,9.62 17.38,11.73 c 7.79,6.48 28.72,10.63 38.9,10.91 c -0.16,0.81 0.2,1.16 1.09,1.05 c 40.53,-0.09 81.06,-0.12 121.59,-0.09 c 0.68,-0.24 1.02,-0.74 1,-1.48 c -0.01,-4.7 0,-9.39 0.03,-14.09 c 0.14,-0.83 -0.17,-1.22 -0.93,-1.17 c -0.11,-0.71 -0.53,-1.03 -1.24,-0.97 c -40.13,-0.28 -80.27,-0.39 -120.43,-0.34 c -0.86,0.01 -1.71,0.15 -2.53,0.43 c -34.7,-4.11 -68.1,-33.41 -72.03,-68.75 c -0.3,-0.57 -0.68,-1.08 -1.14,-1.53 c 0.28,-1.15 -0.09,-3.31 1.75,-3.11 c 44.18,0.01 88.37,0.01 132.56,0 Z"/></g>
<g><path fill="#000000" fill-opacity="0.533" d="M 259.04,16.99 c -44.19,0.01 -88.38,0.01 -132.56,0 c -1.84,-0.2 -1.47,1.96 -1.75,3.11 c -0.65,-1.14 -1.6,-4.3 0.75,-4.08 c 42.67,-0.02 85.35,-0.03 128.02,-0.03 c 1.33,0.21 4.78,-0.36 5.54,1 Z M 69.7,493.1 c 0.08,1.15 0.67,1.78 1.79,1.91 c 20.53,-0.08 41.05,-0.01 61.57,0.2 c -0.68,0.69 -1.53,0.96 -2.55,0.8 c -20,0 -40.01,-0.01 -60.02,-0.02 c -1.22,-0.29 -1.67,-1.08 -1.35,-2.36 c 0.06,-0.34 0.24,-0.51 0.56,-0.53 Z M 442.3,493.05 c 0.96,1.05 1.04,2.83 -0.8,2.94 c -20.01,0.01 -40.01,0.02 -60.02,0.02 c -0.64,-0.09 -2.27,0.21 -2.41,-0.78 c 20.47,-0.23 40.96,-0.31 61.44,-0.22 c 1.16,-0.11 1.76,-0.77 1.79,-1.96 Z M 267.98,495.29 c 6.01,-0.37 12.02,-0.39 18.03,-0.06 c -0.14,0.28 -0.37,0.47 -0.67,0.57 c -5.29,0.2 -10.57,0.27 -15.87,0.2 c -0.67,0.07 -1.16,-0.17 -1.49,-0.71 Z"/></g>
<g><path fill="#000000" fill-opacity="0.38" stroke="#000000" stroke-width="0.5" stroke-opacity="0.38" d="M 338,124 c 0.34,0.09 0.67,0.19 1.01,0.28 c -0.07,5.05 -0.04,10.09 0.08,15.13 c 1.34,1.86 14.49,-0.74 15.94,1.29 c -5.7,0.31 -11.4,0.4 -17.12,0.27 c 0.1,-5.65 0.13,-11.31 0.09,-16.97 Z M 321.84,139.99 c 0.03,0.29 0.06,0.58 0.1,0.87 c -41.82,0.13 -83.64,0.19 -125.46,0.18 c -0.91,0 -1.79,-0.16 -2.65,-0.47 c 2.21,-0.37 4.43,-0.57 6.67,-0.58 c 40.45,0.01 80.89,0.01 121.34,0 Z"/></g>
<g><path fill="#000000" fill-opacity="0.122" stroke="#000000" stroke-width="0.5" stroke-opacity="0.122" d="M 320.87,123.18 c 0.11,0.38 -0.03,0.63 -0.42,0.75 c -41.37,0.07 -82.74,0.09 -124.11,0.07 c -0.11,-0.8 0.26,-1.15 1.11,-1.05 c 41.14,-0.01 82.28,0.07 123.42,0.23 Z M 372,124 c -0.34,0.06 -0.69,0.12 -1.04,0.19 c -10.65,-0.29 -21.3,-0.25 -31.95,0.09 c -0.34,-0.09 -0.67,-0.19 -1.01,-0.28 c 0.11,-1.17 1.68,-0.99 2.48,-1.02 c 10.02,0.02 20.03,0.03 30.04,0.02 c 0.75,-0.02 1.24,0.32 1.48,1 Z"/></g>
<g><path fill="#000000" fill-opacity="0.522" d="M 206.6,245 c -0.66,-1.35 0.36,-4.29 -1.2,-4.91 c -5.05,-0.09 -10.11,-0.13 -15.17,-0.13 c -0.47,0.09 -0.85,-0.06 -1.11,-0.45 c 0.33,-0.42 0.78,-0.62 1.34,-0.57 c 5.33,0.04 10.65,0.08 15.97,0.13 c 1.16,0.77 0.48,4.7 0.17,5.93 Z M 201.35,494.07 c 0.97,0.43 2.07,1.69 0.14,1.79 c -16.95,0.18 -33.91,0.17 -50.86,-0.02 c -0.32,-0.09 -0.53,-0.3 -0.62,-0.61 c 16.5,-0.23 33.01,-0.3 49.53,-0.21 c 0.82,0.07 1.43,-0.24 1.81,-0.95 Z M 310.77,493.96 c 0.28,0.78 0.85,1.14 1.7,1.08 c 16.53,-0.14 33.05,-0.05 49.56,0.26 c -0.12,0.28 -0.34,0.47 -0.65,0.55 c -16.95,0.19 -33.9,0.19 -50.85,0.01 c -2.05,-0.13 -0.72,-1.47 0.24,-1.9 Z"/></g>
<g><path fill="#000000" fill-opacity="0.169" stroke="#000000" stroke-width="0.5" stroke-opacity="0.169" d="M 197.9,90.38 c 0.82,-0.28 1.67,-0.42 2.53,-0.43 c 40.16,-0.05 80.3,0.06 120.43,0.34 c -0.14,0.65 -0.57,0.9 -1.3,0.74 c -37.36,-0.02 -74.71,-0.03 -112.06,-0.02 c -3.21,-0.17 -6.41,-0.38 -9.6,-0.63 Z"/></g>
<g><path fill="#000000" fill-opacity="0.333" stroke="#000000" stroke-width="0.5" stroke-opacity="0.333" d="M 199.32,107.04 c 40.82,-0.05 81.64,-0.04 122.47,0.02 c 0.07,0.32 0.14,0.63 0.21,0.94 c -40.53,-0.03 -81.06,0 -121.59,0.09 c -0.89,0.11 -1.25,-0.24 -1.09,-1.05 Z"/></g>
<g><path fill="#000000" fill-opacity="0.627" d="M 370.96,124.19 c 0.35,-0.07 0.7,-0.13 1.04,-0.19 c -0.01,19.43 0,38.87 0.04,58.3 c -1.16,1.49 -1.09,-2.41 -1.06,-2.8 c 0.03,-18.44 0.02,-36.88 -0.02,-55.31 Z"/></g>
<g><path fill="#000000" fill-opacity="0.557" d="M 140.07,210.96 c 0.69,0.69 0.99,1.53 0.91,2.52 c -0.04,9.33 -0.04,18.67 0.01,28 c -0.25,1.26 -0.35,2.53 -0.29,3.81 c -0.48,0.73 -2.15,0.62 -2.65,-0.02 c 1.22,-0.01 1.87,-0.62 1.95,-1.82 c -0.02,-10.83 0.01,-21.66 0.07,-32.49 Z M 244.4,493.98 c 1.15,1.6 -0.58,2.05 -1.88,2.03 c -4.68,0.01 -9.36,0.01 -14.04,0.01 c -0.91,0.09 -1.72,-0.13 -2.42,-0.66 c 0.79,-0.25 1.6,-0.37 2.43,-0.38 c 4.99,0.03 9.97,0.02 14.96,-0.02 c 0.48,-0.17 0.8,-0.49 0.95,-0.98 Z"/></g>
<g><path fill="#000000" fill-opacity="0.584" d="M 371.99,210.95 c 0.02,10.84 0.01,21.69 -0.04,32.53 c 0.15,1.15 0.81,1.73 1.99,1.74 c -0.45,1.1 -3.32,0.86 -3.01,-1.7 c 0,-2.02 0.15,-4.02 0.45,-6.01 c 0.03,-8.33 -0.03,-16.66 -0.18,-24.98 c -0.08,-0.71 0.19,-1.23 0.79,-1.58 Z"/></g>
<g><path fill="#000000" fill-opacity="0.059" stroke="#000000" stroke-width="0.5" stroke-opacity="0.059" d="M 322.1,91.26 c 0.76,-0.05 1.07,0.34 0.93,1.17 c -0.03,4.7 -0.04,9.39 -0.03,14.09 c 0.02,0.74 -0.32,1.24 -1,1.48 c -0.07,-0.31 -0.14,-0.62 -0.21,-0.94 c 0.18,-5.26 0.28,-10.53 0.31,-15.8 Z M 322.06,124.28 c 0.75,-0.03 1.06,0.36 0.95,1.17 c -0.01,5.15 -0.02,10.31 -0.02,15.47 c -0.35,-0.02 -0.7,-0.04 -1.05,-0.06 c -0.04,-0.29 -0.07,-0.58 -0.1,-0.87 c 0.14,-5.23 0.22,-10.47 0.22,-15.71 Z"/></g>
<g><path fill="#000000" fill-opacity="0.514" d="M 321.71,240.03 c -5.03,-0.1 -10.05,-0.07 -15.08,0.09 c -0.17,0.17 -0.33,0.33 -0.5,0.5 c -0.21,1.47 -0.48,2.92 -0.82,4.34 c -0.23,-1.21 -0.9,-5.19 0.23,-5.9 c 5.34,-0.04 10.67,-0.08 16.01,-0.11 c 1.61,0.23 1.67,0.59 0.16,1.08 Z"/></g>
<g><path fill="#000000" fill-opacity="0.643" d="M 246.95,338.27 c 5.18,-0.21 10.37,-0.31 15.56,-0.3 c 0.88,-0.01 1.73,0.14 2.55,0.46 c -3.17,0.68 -6.35,0.74 -9.54,0.17 c -1.01,0.08 -2.01,0.21 -3.01,0.39 c -1.89,-0.16 -3.74,-0.4 -5.56,-0.72 Z"/></g>
</svg>
